<svg width="64" height="64" viewBox="0 0 64 64" fill="none" xmlns="http://www.w3.org/2000/svg">
<rect width="64" height="64" rx="1" fill="#BC5652"/>
<path d="M29.9111 20.97V46.8C29.9111 55.2 27.8811 58.7 23.4011 58.7C20.6011 58.7 17.8711 57.09 15.9111 54.57L15.2811 54.71L14.8611 58H13.6011L15.0011 46.52V6.9H19.8311V16.77L18.2211 27.41L18.9211 27.55C20.3911 17.05 22.7711 15.3 25.4311 15.3C28.0211 15.3 29.9111 17.47 29.9111 20.97ZM24.8711 47.22V23.7C24.8711 21.18 24.2411 20.06 23.0511 20.06C21.5111 20.06 19.9011 24.82 19.9011 31.26V52.82C20.8111 53.73 21.7911 54.22 22.9111 54.22C24.2411 54.22 24.8711 53.24 24.8711 47.22ZM34.7884 16H39.6884V16.77L38.0084 27.41L38.7084 27.55C40.1784 17.05 42.5584 15.3 45.2184 15.3C47.8084 15.3 49.6984 17.47 49.6984 20.97V58H44.7984V23.7C44.7984 21.18 44.4484 20.06 43.1184 20.06C41.1584 20.06 39.6884 24.89 39.6884 31.4V58H34.7884V16Z" fill="white"/>
</svg>
