<svg width="396" height="396" viewBox="0 0 396 396" fill="none" xmlns="http://www.w3.org/2000/svg">
<rect width="396" height="396" rx="24.75" fill="#BC5652"/>
<path d="M185.69 130.787V283C185.69 332.5 173.728 353.125 147.328 353.125C130.828 353.125 114.74 343.638 103.19 328.787L99.4778 329.613L97.0028 349H89.5778L97.8278 281.35V47.875H126.29V106.037L116.803 168.737L120.928 169.562C129.59 107.687 143.615 97.375 159.29 97.375C174.553 97.375 185.69 110.162 185.69 130.787ZM155.99 285.475V146.875C155.99 132.025 152.278 125.425 145.265 125.425C136.19 125.425 126.703 153.475 126.703 191.425V318.475C132.065 323.837 137.84 326.725 144.44 326.725C152.278 326.725 155.99 320.95 155.99 285.475ZM214.432 101.5H243.307V106.037L233.407 168.737L237.532 169.562C246.194 107.687 260.219 97.375 275.894 97.375C291.157 97.375 302.294 110.162 302.294 130.787V349H273.419V146.875C273.419 132.025 271.357 125.425 263.519 125.425C251.969 125.425 243.307 153.888 243.307 192.25V349H214.432V101.5Z" fill="white"/>
</svg>
